<svg width="31" height="43" viewBox="0 0 31 43" fill="none" xmlns="http://www.w3.org/2000/svg">
<path d="M23.5 5.5H7.5C4.67157 5.5 3.25736 5.5 2.37868 6.37868C1.5 7.25736 1.5 8.67157 1.5 11.5V31.5C1.5 34.3284 1.5 35.7426 2.37868 36.6213C3.25736 37.5 4.67157 37.5 7.5 37.5H23.5C26.3284 37.5 27.7426 37.5 28.6213 36.6213C29.5 35.7426 29.5 34.3284 29.5 31.5V11.5C29.5 8.67157 29.5 7.25736 28.6213 6.37868C27.7426 5.5 26.3284 5.5 23.5 5.5Z" stroke="#141B34" stroke-width="3" stroke-linecap="round" stroke-linejoin="round"/>
<path d="M10.2733 20.1404C7.98809 16.0407 11.2547 14.2427 13.7622 12.4946C14.7133 11.8316 15.1889 11.5 15.4973 11.5C15.8057 11.5 16.2814 11.8314 17.2327 12.4944C19.7417 14.2427 23.0118 16.0409 20.728 20.1417C20.3275 20.8608 20.1273 21.2204 20.0607 21.4774C19.9941 21.7344 19.994 22.0345 19.9937 22.6348L19.9909 29.456C19.9905 30.4196 19.9903 30.9014 19.6974 31.2007C19.4046 31.5 18.9333 31.5 17.9909 31.5H13.0086C12.0657 31.5 11.5943 31.5 11.3014 31.2005C11.0086 30.9011 11.0086 30.4191 11.0086 29.4552V22.6367C11.0086 22.0355 11.0086 21.7349 10.9418 21.4775C10.8751 21.2201 10.6745 20.8602 10.2733 20.1404Z" stroke="#141B34" stroke-width="3" stroke-linecap="round" stroke-linejoin="round"/>
<path d="M19.5 5.5V1.5" stroke="#141B34" stroke-width="3" stroke-linecap="round" stroke-linejoin="round"/>
<path d="M27.5 5.5V1.5" stroke="#141B34" stroke-width="3" stroke-linecap="round" stroke-linejoin="round"/>
<path d="M11.5 5.5V1.5" stroke="#141B34" stroke-width="3" stroke-linecap="round" stroke-linejoin="round"/>
<path d="M3.5 5.5V1.5" stroke="#141B34" stroke-width="3" stroke-linecap="round" stroke-linejoin="round"/>
<path d="M19.5 41.5V37.5" stroke="#141B34" stroke-width="3" stroke-linecap="round" stroke-linejoin="round"/>
<path d="M27.5 41.5V37.5" stroke="#141B34" stroke-width="3" stroke-linecap="round" stroke-linejoin="round"/>
<path d="M11.5 41.5V37.5" stroke="#141B34" stroke-width="3" stroke-linecap="round" stroke-linejoin="round"/>
<path d="M3.5 41.5V37.5" stroke="#141B34" stroke-width="3" stroke-linecap="round" stroke-linejoin="round"/>
</svg>
