<svg width="48" height="48" viewBox="0 0 48 48" fill="none" xmlns="http://www.w3.org/2000/svg">
<path d="M31.4213 7.43961C31.4213 9.35057 29.8734 10.8997 27.9641 10.8997C26.0547 10.8997 24.5068 9.35057 24.5068 7.43961C24.5068 5.52864 26.0547 3.97949 27.9641 3.97949C29.8734 3.97949 31.4213 5.52864 31.4213 7.43961Z" stroke="#141B34" stroke-width="3"/>
<path d="M22.5652 11.0966C22.5652 13.0076 21.0173 14.5567 19.1079 14.5567C17.1985 14.5567 15.6507 13.0076 15.6507 11.0966C15.6507 9.18562 17.1985 7.63647 19.1079 7.63647C21.0173 7.63647 22.5652 9.18562 22.5652 11.0966Z" stroke="#141B34" stroke-width="3"/>
<path d="M18.9028 19.9999C18.9028 21.9109 17.3549 23.46 15.4455 23.46C13.5361 23.46 11.9883 21.9109 11.9883 19.9999C11.9883 18.0889 13.5361 16.5398 15.4455 16.5398C17.3549 16.5398 18.9028 18.0889 18.9028 19.9999Z" stroke="#141B34" stroke-width="3"/>
<path d="M22.5289 28.8734C22.5289 30.7844 20.9811 32.3336 19.0717 32.3336C17.1623 32.3336 15.6144 30.7844 15.6144 28.8734C15.6144 26.9625 17.1623 25.4133 19.0717 25.4133C20.9811 25.4133 22.5289 26.9625 22.5289 28.8734Z" stroke="#141B34" stroke-width="3"/>
<path d="M31.4291 32.5678C31.4291 34.4787 29.8812 36.0279 27.9718 36.0279C26.0624 36.0279 24.5146 34.4787 24.5146 32.5678C24.5146 30.6568 26.0624 29.1077 27.9718 29.1077C29.8812 29.1077 31.4291 30.6568 31.4291 32.5678Z" stroke="#141B34" stroke-width="3"/>
<path d="M40.3299 28.8734C40.3299 30.7844 38.7821 32.3336 36.8727 32.3336C34.9633 32.3336 33.4154 30.7844 33.4154 28.8734C33.4154 26.9625 34.9633 25.4133 36.8727 25.4133C38.7821 25.4133 40.3299 26.9625 40.3299 28.8734Z" stroke="#141B34" stroke-width="3"/>
<path d="M44.0046 19.9999C44.0046 21.9109 42.4567 23.46 40.5473 23.46C38.6379 23.46 37.0901 21.9109 37.0901 19.9999C37.0901 18.0889 38.6379 16.5398 40.5473 16.5398C42.4567 16.5398 44.0046 18.0889 44.0046 19.9999Z" stroke="#141B34" stroke-width="3"/>
<path d="M40.3299 11.1256C40.3299 13.0365 38.7821 14.5857 36.8727 14.5857C34.9633 14.5857 33.4154 13.0365 33.4154 11.1256C33.4154 9.21461 34.9633 7.66547 36.8727 7.66547C38.7821 7.66547 40.3299 9.21461 40.3299 11.1256Z" stroke="#141B34" stroke-width="3"/>
<path d="M15.5251 29.6775L5.78159 34.5857C4.32848 35.3737 3.46014 36.2885 4.40846 37.9809C4.80869 38.7203 5.65222 39.9638 6.86754 41.1875M18.3016 32.4507L13.4057 42.1649C12.3066 44.3463 11.2539 44.0923 10.3881 43.782C9.00798 43.0991 7.82289 42.1494 6.86754 41.1875M6.86754 41.1875L10.2185 37.7688" stroke="#141B34" stroke-width="3" stroke-linecap="round" stroke-linejoin="round"/>
</svg>
